<?xml version="1.0" standalone="no"?>
<!DOCTYPE svg PUBLIC "-//W3C//DTD SVG 20010904//EN"
 "http://www.w3.org/TR/2001/REC-SVG-20010904/DTD/svg10.dtd">
<svg version="1.0" xmlns="http://www.w3.org/2000/svg"
 width="665.000000pt" height="83.000000pt" viewBox="0 0 665.000000 83.000000"
 preserveAspectRatio="xMidYMid meet">
<metadata>
Created by potrace 1.16, written by Peter Selinger 2001-2019
</metadata>
<g transform="translate(0.000000,83.000000) scale(0.100000,-0.100000)"
fill="#000000" stroke="none">
<path d="M2751 675 c-20 -17 -33 -40 -38 -68 -8 -40 -11 -42 -48 -48 -22 -3
-51 -11 -64 -18 -42 -23 -112 -94 -134 -136 -24 -46 -28 -124 -8 -148 31 -38
116 -10 163 53 l23 32 5 -48 c5 -53 18 -62 67 -49 35 8 126 96 114 108 -7 7
-24 -2 -51 -26 -50 -46 -70 -48 -70 -6 0 41 32 165 70 267 16 45 30 89 30 97
0 23 -25 18 -59 -10z m-63 -170 c2 -2 -2 -21 -9 -42 -29 -89 -115 -184 -154
-169 -44 17 12 166 78 207 28 17 70 19 85 4z"/>
<path d="M235 664 c-50 -25 -85 -65 -85 -95 0 -32 12 -43 40 -34 15 5 20 15
20 39 0 42 13 52 75 62 44 6 48 5 38 -8 -7 -8 -26 -74 -43 -146 -33 -148 -50
-188 -85 -204 -51 -23 -27 -33 83 -35 154 -4 215 22 267 111 77 132 39 282
-80 315 -60 17 -194 14 -230 -5z m202 -39 c35 -10 80 -69 88 -114 9 -56 -11
-135 -44 -170 -34 -36 -95 -54 -160 -45 l-50 6 24 37 c21 31 36 82 80 279 4
16 11 22 23 18 9 -2 27 -7 39 -11z"/>
<path d="M2114 551 c-17 -11 -64 -52 -104 -91 -52 -52 -69 -75 -61 -83 8 -8
29 7 76 53 36 35 65 60 65 55 0 -6 -13 -63 -29 -128 -15 -64 -25 -117 -20
-117 28 0 60 27 70 59 20 62 55 124 97 171 l40 45 24 -22 c13 -13 34 -23 45
-23 28 0 99 78 84 93 -7 7 -18 2 -36 -17 l-26 -28 -23 21 c-42 39 -86 21 -141
-59 -35 -51 -42 -40 -21 31 9 29 16 54 16 56 0 9 -29 1 -56 -16z"/>
<path d="M795 541 c-16 -10 -63 -50 -104 -90 -55 -54 -71 -75 -62 -84 8 -8 28
5 76 53 36 35 65 60 65 55 0 -6 -9 -44 -20 -85 -31 -119 -25 -150 32 -150 40
0 147 95 128 114 -6 5 -26 -6 -50 -27 -72 -66 -83 -44 -46 96 15 56 29 110 32
120 7 22 -13 22 -51 -2z"/>
<path d="M1100 553 c-45 -17 -66 -73 -38 -101 15 -15 3 -28 -90 -104 -49 -40
-70 -64 -64 -70 7 -7 21 -3 41 11 l31 22 0 -21 c0 -43 119 -66 180 -35 70 36
81 106 25 162 l-35 35 36 41 c35 38 36 41 19 54 -19 13 -76 16 -105 6z"/>
<path d="M1407 530 c-88 -56 -140 -158 -118 -232 26 -86 127 -78 220 16 54 55
38 69 -24 21 -82 -62 -128 -58 -133 11 -5 67 46 152 101 170 20 6 49 -17 59
-48 7 -20 27 1 37 39 13 44 4 53 -55 53 -27 0 -55 -9 -87 -30z"/>
<path d="M1715 544 c-101 -52 -138 -246 -55 -289 110 -57 230 40 230 187 0 52
-3 63 -29 89 -24 23 -38 29 -73 29 -24 0 -56 -7 -73 -16z m99 -30 c20 -20 20
-76 0 -143 -25 -85 -79 -124 -118 -85 -33 33 -12 165 34 214 31 33 60 38 84
14z"/>
</g>
</svg>
