<?xml version="1.0" standalone="no"?>
<!DOCTYPE svg PUBLIC "-//W3C//DTD SVG 20010904//EN"
 "http://www.w3.org/TR/2001/REC-SVG-20010904/DTD/svg10.dtd">
<svg version="1.0" xmlns="http://www.w3.org/2000/svg"
 width="429.000000pt" height="84.000000pt" viewBox="0 0 429.000000 84.000000"
 preserveAspectRatio="xMidYMid meet">
<metadata>
Created by potrace 1.16, written by Peter Selinger 2001-2019
</metadata>
<g transform="translate(0.000000,84.000000) scale(0.100000,-0.100000)"
fill="#000000" stroke="none">
<path d="M532 656 c-49 -22 -82 -64 -82 -102 0 -43 9 -64 27 -64 11 0 13 7 8
29 -3 17 -2 39 4 49 12 23 79 52 121 52 l30 0 -30 -42 c-35 -48 -38 -84 -10
-138 37 -73 23 -110 -42 -110 -27 0 -46 -8 -69 -28 -41 -37 -31 -62 12 -30 32
24 32 24 129 -32 77 -44 193 -15 246 62 25 35 29 53 32 117 3 71 1 80 -30 131
-47 77 -119 114 -232 118 -55 1 -92 -3 -114 -12z m213 -65 c22 -10 50 -28 62
-40 72 -69 80 -192 16 -253 -44 -41 -75 -44 -139 -13 l-55 27 26 33 c31 41 33
91 5 145 -25 49 -25 61 1 94 24 31 31 31 84 7z"/>
<path d="M2230 640 c-36 -36 -23 -63 44 -97 l51 -26 -42 -14 -43 -15 0 -94 c0
-75 -3 -96 -15 -100 -24 -10 -17 -22 17 -30 18 -3 51 -16 74 -27 l41 -19 51
37 c60 42 66 58 60 155 -3 60 -7 73 -33 101 -17 17 -59 44 -95 60 -70 32 -82
44 -74 72 7 23 -11 22 -36 -3z m159 -166 c28 -36 30 -151 3 -184 -17 -21 -19
-21 -55 -7 l-37 16 0 85 c0 83 1 86 28 100 36 20 37 20 61 -10z"/>
<path d="M997 516 c-39 -22 -52 -52 -17 -41 26 8 35 -27 26 -116 -4 -50 -2
-79 8 -104 17 -40 28 -43 74 -15 35 22 44 45 13 35 -13 -4 -23 0 -29 12 -14
25 -2 166 14 176 20 12 17 19 -19 48 l-33 26 -37 -21z"/>
<path d="M1171 495 c-50 -54 -53 -85 -12 -126 33 -33 56 -36 83 -12 38 35 94
-27 57 -64 -7 -7 -31 -9 -63 -6 -46 5 -55 2 -84 -22 -40 -33 -29 -57 13 -29
25 16 28 16 62 0 33 -16 36 -16 69 5 46 28 64 56 64 100 0 63 -69 101 -112 62
-34 -31 -81 17 -60 62 10 21 15 24 31 15 35 -18 80 -12 107 15 31 31 23 51
-12 28 -23 -15 -28 -15 -60 0 -19 10 -36 17 -38 17 -2 0 -22 -20 -45 -45z"/>
<path d="M1488 511 c-50 -32 -68 -67 -68 -138 0 -59 21 -105 60 -133 l33 -23
45 23 c42 23 61 44 49 56 -3 3 -15 0 -27 -6 -53 -28 -100 23 -100 107 0 46 21
89 41 84 47 -13 61 -12 79 4 27 24 25 38 -4 31 -15 -4 -28 0 -36 9 -17 20 -19
20 -72 -14z"/>
<path d="M1770 525 c-19 -8 -47 -16 -62 -19 l-28 -6 0 -104 c0 -83 -3 -105
-15 -110 -24 -9 -17 -25 13 -32 15 -3 46 -12 69 -20 42 -15 43 -15 89 16 58
41 79 85 69 154 -7 59 -27 99 -57 120 -26 19 -31 19 -78 1z m49 -44 c22 -22
37 -112 26 -159 -3 -16 -14 -37 -24 -46 -15 -14 -20 -14 -51 2 l-35 17 -3 93
c-3 88 -2 93 20 102 35 13 46 12 67 -9z"/>
<path d="M1977 512 c-32 -33 -34 -46 -7 -39 33 8 45 -20 45 -105 0 -65 -3 -81
-17 -89 -29 -16 -21 -26 31 -44 48 -15 51 -15 90 5 23 11 41 25 41 30 0 15
-19 21 -37 11 -11 -6 -24 -6 -35 0 -23 12 -25 113 -4 164 16 38 27 43 46 20
12 -14 16 -13 37 6 l23 23 -22 23 c-27 29 -36 29 -73 -1 l-29 -23 -19 23 c-24
31 -37 30 -70 -4z"/>
</g>
</svg>
