<?xml version="1.0" standalone="no"?>
<!DOCTYPE svg PUBLIC "-//W3C//DTD SVG 20010904//EN"
 "http://www.w3.org/TR/2001/REC-SVG-20010904/DTD/svg10.dtd">
<svg version="1.0" xmlns="http://www.w3.org/2000/svg"
 width="583.000000pt" height="76.000000pt" viewBox="0 0 583.000000 76.000000"
 preserveAspectRatio="xMidYMid meet">
<metadata>
Created by potrace 1.16, written by Peter Selinger 2001-2019
</metadata>
<g transform="translate(0.000000,76.000000) scale(0.100000,-0.100000)"
fill="#000000" stroke="none">
<path d="M564 675 c-49 -25 -75 -59 -81 -104 -6 -41 -4 -43 60 -105 70 -67 87
-102 68 -142 -24 -53 -114 -54 -139 -1 -16 34 0 72 26 62 9 -4 22 -9 27 -11 6
-3 19 2 30 11 17 13 18 16 5 25 -8 5 -34 10 -57 10 -90 0 -138 -93 -78 -150
20 -19 40 -25 90 -28 117 -8 195 53 195 152 0 44 -3 50 -65 111 -50 49 -65 70
-65 92 0 56 40 69 88 28 29 -24 31 -24 67 -9 l38 16 -26 26 c-22 21 -37 27
-89 29 -44 3 -73 -1 -94 -12z"/>
<path d="M4388 649 c-16 -12 -30 -34 -34 -55 -5 -29 -10 -34 -33 -34 -26 0
-51 -16 -51 -32 0 -4 14 -8 32 -8 l32 0 -57 -58 c-53 -53 -57 -60 -41 -72 14
-13 20 -10 47 20 l30 34 -7 -30 c-3 -16 -9 -54 -12 -85 -8 -65 8 -89 60 -89
33 0 92 35 129 77 16 18 16 22 2 33 -12 10 -21 7 -50 -19 -62 -55 -67 -41 -34
100 l21 89 53 0 c37 0 60 6 76 19 36 29 15 41 -48 28 -29 -6 -55 -8 -58 -5 -3
2 2 24 10 48 8 23 15 46 15 51 0 17 -55 8 -82 -12z"/>
<path d="M2490 550 c-19 -10 -66 -50 -103 -88 -57 -58 -66 -71 -54 -81 13 -10
23 -2 63 44 26 30 51 55 55 55 4 0 0 -30 -8 -67 -14 -62 -21 -74 -84 -139 -54
-56 -69 -78 -69 -102 0 -41 21 -56 71 -49 46 6 90 42 109 88 9 21 19 29 39 29
103 1 231 137 231 245 0 96 -98 102 -179 10 -34 -39 -39 -33 -16 22 8 19 15
39 15 44 0 15 -33 9 -70 -11z m160 -91 c0 -48 -41 -131 -76 -154 -34 -22 -77
-10 -69 19 15 51 58 127 86 151 45 37 59 33 59 -16z"/>
<path d="M3104 540 c-88 -50 -134 -121 -134 -205 0 -128 164 -127 249 2 17 25
31 52 31 59 0 7 19 23 42 36 53 29 87 73 70 90 -9 9 -18 6 -39 -14 -42 -38
-63 -43 -63 -14 0 62 -30 73 -73 28 -31 -32 -35 -67 -11 -93 15 -17 15 -22 -7
-66 -40 -81 -109 -84 -109 -4 0 53 43 138 77 153 33 14 63 38 63 50 0 17 -47
7 -96 -22z"/>
<path d="M3735 553 c-40 -21 -152 -120 -166 -145 -8 -15 -8 -23 1 -32 9 -8 25
3 66 48 63 69 65 64 29 -74 -14 -52 -25 -98 -25 -102 0 -13 27 -9 62 8 27 13
36 26 52 76 19 60 65 131 98 152 14 9 21 6 33 -12 29 -40 81 -24 126 39 28 39
13 59 -25 34 -25 -16 -28 -16 -45 -1 -37 34 -91 11 -146 -64 -29 -39 -31 -31
-10 30 8 23 15 46 15 51 0 14 -32 10 -65 -8z"/>
</g>
</svg>
