<?xml version="1.0" standalone="no"?>
<!DOCTYPE svg PUBLIC "-//W3C//DTD SVG 20010904//EN"
 "http://www.w3.org/TR/2001/REC-SVG-20010904/DTD/svg10.dtd">
<svg version="1.0" xmlns="http://www.w3.org/2000/svg"
 width="213.000000pt" height="80.000000pt" viewBox="0 0 213.000000 80.000000"
 preserveAspectRatio="xMidYMid meet">
<metadata>
Created by potrace 1.16, written by Peter Selinger 2001-2019
</metadata>
<g transform="translate(0.000000,80.000000) scale(0.100000,-0.100000)"
fill="#000000" stroke="none">
<path d="M257 573 c-4 -3 -7 -66 -7 -139 0 -151 1 -152 83 -139 62 11 97 32
113 70 33 81 5 173 -61 201 -35 14 -116 19 -128 7z m138 -58 c21 -20 25 -34
25 -80 0 -72 -28 -105 -90 -105 l-40 0 0 105 0 105 40 0 c30 0 47 -7 65 -25z"/>
<path d="M538 490 c-68 -53 -50 -176 27 -196 31 -8 92 3 101 17 12 20 -11 30
-41 19 -29 -11 -85 2 -85 20 0 5 -3 15 -6 24 -5 14 4 16 65 16 l71 0 0 34 c0
70 -78 109 -132 66z"/>
<path d="M938 494 c-52 -28 -61 -144 -14 -183 37 -30 136 -20 136 14 0 13 -5
14 -22 8 -37 -12 -80 -7 -95 13 -26 35 -16 43 54 46 75 3 85 14 63 67 -19 47
-72 63 -122 35z"/>
<path d="M1251 497 c-33 -20 -50 -55 -51 -105 0 -35 6 -49 30 -74 28 -27 36
-30 73 -25 59 8 87 43 87 107 0 36 -6 56 -22 75 -28 31 -83 41 -117 22z"/>
<path d="M1447 503 c-4 -3 -7 -69 -7 -145 0 -116 2 -138 15 -138 11 0 15 12
15 45 0 44 1 44 24 34 31 -14 70 -5 96 23 31 34 29 130 -5 163 -26 27 -54 31
-86 14 -14 -7 -24 -7 -33 0 -7 6 -16 8 -19 4z"/>
<path d="M1703 500 c-53 -21 -70 -138 -26 -181 37 -38 143 -33 143 7 0 11 -5
14 -16 10 -60 -23 -114 -7 -114 34 0 17 8 19 68 22 65 3 67 4 70 31 2 20 -5
35 -27 57 -30 30 -58 36 -98 20z"/>
</g>
</svg>
