<?xml version="1.0" standalone="no"?>
<!DOCTYPE svg PUBLIC "-//W3C//DTD SVG 20010904//EN"
 "http://www.w3.org/TR/2001/REC-SVG-20010904/DTD/svg10.dtd">
<svg version="1.0" xmlns="http://www.w3.org/2000/svg"
 width="289.000000pt" height="92.000000pt" viewBox="0 0 289.000000 92.000000"
 preserveAspectRatio="xMidYMid meet">
<metadata>
Created by potrace 1.16, written by Peter Selinger 2001-2019
</metadata>
<g transform="translate(0.000000,92.000000) scale(0.100000,-0.100000)"
fill="#000000" stroke="none">
<path d="M0 460 l0 -460 1445 0 1445 0 0 460 0 460 -1445 0 -1445 0 0 -460z
m1588 17 l2 -167 -25 0 -25 0 0 163 c0 90 3 167 7 171 4 4 14 5 23 4 13 -3 15
-29 18 -171z m-816 126 c48 -28 70 -76 65 -146 -6 -100 -64 -150 -172 -145
l-60 3 -3 149 c-2 113 1 152 10 158 20 14 125 2 160 -19z m248 -68 c20 -10 33
-28 41 -55 17 -57 3 -70 -77 -70 -68 0 -81 -12 -48 -44 18 -18 51 -20 89 -6
21 8 27 7 32 -7 10 -25 -25 -43 -82 -43 -44 0 -55 4 -80 30 -25 26 -29 39 -29
84 0 102 71 154 154 111z m132 -60 c15 -39 29 -74 31 -80 2 -5 15 23 28 64 26
76 49 105 69 85 8 -8 -1 -43 -31 -123 -39 -104 -44 -112 -66 -109 -22 3 -30
17 -64 108 -40 106 -43 134 -12 128 11 -2 28 -29 45 -73z m298 60 c20 -10 33
-28 41 -55 17 -57 3 -70 -77 -70 -68 0 -81 -12 -48 -44 18 -18 51 -20 89 -6
21 8 27 7 32 -7 10 -25 -25 -43 -82 -43 -44 0 -55 4 -80 30 -25 26 -29 39 -29
84 0 102 71 154 154 111z m353 -6 c58 -45 58 -153 0 -198 -40 -33 -107 -29
-144 8 -25 26 -29 37 -29 86 0 51 3 60 34 91 41 41 97 47 139 13z m123 11 c6
-6 20 -6 40 2 68 25 124 -26 124 -112 0 -83 -47 -129 -120 -118 -28 4 -29 3
-32 -36 -2 -34 -7 -42 -25 -44 -23 -3 -23 -3 -23 151 0 165 5 188 36 157z
m365 -19 c21 -21 29 -39 29 -64 0 -42 -10 -47 -91 -47 -63 0 -72 -9 -42 -42
18 -20 49 -23 88 -8 21 8 27 7 32 -7 10 -24 -24 -43 -80 -43 -40 0 -53 5 -78
29 -25 25 -29 37 -29 83 1 85 37 127 108 128 24 0 42 -8 63 -29z m114 19 c5
-8 11 -7 20 0 23 19 70 8 73 -17 3 -19 -1 -23 -24 -23 -50 0 -64 -24 -64 -112
0 -77 -1 -79 -22 -76 -22 3 -23 8 -26 107 -1 58 0 111 2 118 6 16 32 17 41 3z"/>
<path d="M650 470 l0 -110 43 0 c32 0 49 6 64 23 44 46 38 149 -10 182 -12 8
-38 15 -59 15 l-38 0 0 -110z"/>
</g>
</svg>
