<?xml version="1.0" standalone="no"?>
<!DOCTYPE svg PUBLIC "-//W3C//DTD SVG 20010904//EN"
 "http://www.w3.org/TR/2001/REC-SVG-20010904/DTD/svg10.dtd">
<svg version="1.0" xmlns="http://www.w3.org/2000/svg"
 width="284.000000pt" height="80.000000pt" viewBox="0 0 284.000000 80.000000"
 preserveAspectRatio="xMidYMid meet">
<metadata>
Created by potrace 1.16, written by Peter Selinger 2001-2019
</metadata>
<g transform="translate(0.000000,80.000000) scale(0.100000,-0.100000)"
fill="#000000" stroke="none">
<path d="M0 400 l0 -400 1420 0 1420 0 0 400 0 400 -1420 0 -1420 0 0 -400z
m1628 -13 c2 -162 2 -167 -18 -167 -11 0 -20 5 -20 10 0 7 -7 7 -20 0 -12 -6
-37 -10 -57 -8 -53 4 -78 43 -78 120 1 56 3 63 34 90 29 26 40 29 72 25 l39
-5 0 38 c0 51 9 72 29 68 14 -3 16 -25 19 -171z m-1166 126 c48 -28 70 -76 65
-146 -6 -100 -64 -150 -172 -145 l-60 3 -3 149 c-2 113 1 152 10 158 20 14
125 2 160 -19z m1738 -27 c0 -19 6 -25 28 -28 39 -4 38 -42 -1 -46 l-28 -3 3
-72 3 -72 28 2 c24 2 28 -2 25 -20 -2 -17 -11 -23 -40 -25 -52 -4 -68 22 -68
115 0 56 -3 73 -14 73 -23 0 -27 29 -6 42 11 7 20 23 20 35 0 18 6 23 25 23
20 0 25 -5 25 -24z m-1423 -32 c24 -7 38 -33 25 -46 -5 -5 -20 -4 -35 1 -15 6
-34 8 -42 5 -28 -11 -15 -34 34 -58 68 -35 79 -95 21 -126 -29 -15 -96 -12
-114 6 -33 32 -11 51 38 33 28 -10 38 -10 50 0 25 21 19 30 -28 51 -69 29 -84
73 -41 115 24 25 50 30 92 19z m231 -17 c20 -20 8 -52 -16 -42 -69 30 -102 11
-102 -59 0 -66 40 -94 88 -60 24 16 42 12 42 -11 0 -23 -42 -45 -86 -45 -60 0
-94 41 -94 113 1 59 16 93 51 114 29 16 96 11 117 -10z m191 9 c49 -26 68
-115 36 -176 -20 -38 -43 -50 -98 -50 -80 0 -124 73 -98 161 20 67 96 98 160
65z m136 4 c5 -8 11 -7 20 0 23 19 70 8 73 -17 3 -19 -1 -23 -24 -23 -50 0
-64 -24 -64 -112 0 -77 -1 -79 -22 -76 -22 3 -23 8 -26 107 -1 58 0 111 2 118
6 16 32 17 41 3z m500 0 c4 -7 12 -7 25 0 31 16 67 11 96 -13 26 -23 27 -28
28 -118 1 -88 0 -94 -20 -97 -20 -3 -22 2 -26 83 -6 107 -22 131 -65 98 -26
-19 -28 -26 -31 -102 -3 -78 -4 -82 -25 -79 -21 3 -22 8 -25 107 -2 67 1 108
9 117 14 17 25 18 34 4z m499 1 c4 -5 18 -5 35 2 35 13 61 4 61 -23 0 -16 -7
-20 -29 -20 -45 0 -61 -31 -61 -118 0 -70 -1 -73 -22 -70 -22 3 -23 8 -26 107
-2 67 1 108 9 117 13 16 25 18 33 5z m265 -5 c49 -26 68 -115 36 -176 -20 -38
-43 -50 -98 -50 -80 0 -124 73 -98 161 20 67 96 98 160 65z"/>
<path d="M340 380 l0 -110 43 0 c32 0 49 6 64 23 44 46 38 149 -10 182 -12 8
-38 15 -59 15 l-38 0 0 -110z"/>
</g>
</svg>
