<?xml version="1.0" standalone="no"?>
<!DOCTYPE svg PUBLIC "-//W3C//DTD SVG 20010904//EN"
 "http://www.w3.org/TR/2001/REC-SVG-20010904/DTD/svg10.dtd">
<svg version="1.0" xmlns="http://www.w3.org/2000/svg"
 width="665.000000pt" height="83.000000pt" viewBox="0 0 665.000000 83.000000"
 preserveAspectRatio="xMidYMid meet">

<g transform="translate(0.000000,83.000000) scale(0.100000,-0.100000)"
fill="#000000" stroke="none">
<path d="M2751 675 c-20 -17 -33 -40 -38 -68 -8 -40 -11 -42 -48 -48 -22 -3
-51 -11 -64 -18 -42 -23 -112 -94 -134 -136 -24 -46 -28 -124 -8 -148 31 -38
116 -10 163 53 l23 32 5 -48 c5 -53 18 -62 67 -49 35 8 126 96 114 108 -7 7
-24 -2 -51 -26 -50 -46 -70 -48 -70 -6 0 41 32 165 70 267 16 45 30 89 30 97
0 23 -25 18 -59 -10z m-63 -170 c2 -2 -2 -21 -9 -42 -29 -89 -115 -184 -154
-169 -44 17 12 166 78 207 28 17 70 19 85 4z"/>
<path d="M235 664 c-50 -25 -85 -65 -85 -95 0 -32 12 -43 40 -34 15 5 20 15
20 39 0 42 13 52 75 62 44 6 48 5 38 -8 -7 -8 -26 -74 -43 -146 -33 -148 -50
-188 -85 -204 -51 -23 -27 -33 83 -35 154 -4 215 22 267 111 77 132 39 282
-80 315 -60 17 -194 14 -230 -5z m202 -39 c35 -10 80 -69 88 -114 9 -56 -11
-135 -44 -170 -34 -36 -95 -54 -160 -45 l-50 6 24 37 c21 31 36 82 80 279 4
16 11 22 23 18 9 -2 27 -7 39 -11z"/>
<path d="M812 657 l-22 -24 20 -18 c20 -18 21 -18 45 5 23 22 24 25 8 42 -21
23 -25 23 -51 -5z"/>
<path d="M3178 673 c7 -3 16 -2 19 1 4 3 -2 6 -13 5 -11 0 -14 -3 -6 -6z"/>
<path d="M3451 643 c-6 -21 -11 -45 -10 -53 0 -8 7 7 14 35 8 27 12 51 10 53
-2 2 -8 -13 -14 -35z"/>
<path d="M3114 648 c-44 -34 -54 -50 -51 -83 1 -22 8 -30 22 -32 16 -1 16 -1
3 3 -43 13 -9 86 57 122 11 6 15 12 9 12 -6 0 -24 -10 -40 -22z"/>
<path d="M3163 633 c9 -2 23 -2 30 0 6 3 -1 5 -18 5 -16 0 -22 -2 -12 -5z"/>
<path d="M3243 617 c-14 -29 -56 -237 -50 -243 2 -2 14 46 27 108 12 62 26
121 32 131 5 10 8 21 5 23 -2 2 -9 -6 -14 -19z"/>
<path d="M3296 619 c-4 -13 -19 -87 -36 -163 -33 -153 -46 -181 -93 -201 -18
-8 -25 -14 -16 -15 20 0 65 35 80 61 12 23 80 331 74 337 -2 3 -6 -6 -9 -19z"/>
<path d="M3399 608 c4 -28 6 -29 9 -9 2 13 0 27 -5 32 -6 6 -7 -3 -4 -23z"/>
<path d="M3121 616 c-12 -14 -12 -78 0 -71 3 3 4 16 1 30 -2 14 1 32 8 40 7 8
10 15 7 15 -2 0 -10 -6 -16 -14z"/>
<path d="M4835 570 c-3 -6 1 -7 9 -4 19 7 20 12 -4 -64 -11 -35 -20 -69 -19
-75 1 -12 48 131 49 146 0 11 -28 9 -35 -3z"/>
<path d="M2114 551 c-17 -11 -64 -52 -104 -91 -52 -52 -69 -75 -61 -83 8 -8
29 7 76 53 36 35 65 60 65 55 0 -6 -13 -63 -29 -128 -15 -64 -25 -117 -20
-117 28 0 60 27 70 59 20 62 55 124 97 171 l40 45 24 -22 c13 -13 34 -23 45
-23 28 0 99 78 84 93 -7 7 -18 2 -36 -17 l-26 -28 -23 21 c-42 39 -86 21 -141
-59 -35 -51 -42 -40 -21 31 9 29 16 54 16 56 0 9 -29 1 -56 -16z"/>
<path d="M795 541 c-16 -10 -63 -50 -104 -90 -55 -54 -71 -75 -62 -84 8 -8 28
5 76 53 36 35 65 60 65 55 0 -6 -9 -44 -20 -85 -31 -119 -25 -150 32 -150 40
0 147 95 128 114 -6 5 -26 -6 -50 -27 -72 -66 -83 -44 -46 96 15 56 29 110 32
120 7 22 -13 22 -51 -2z"/>
<path d="M1100 553 c-45 -17 -66 -73 -38 -101 15 -15 3 -28 -90 -104 -49 -40
-70 -64 -64 -70 7 -7 21 -3 41 11 l31 22 0 -21 c0 -43 119 -66 180 -35 70 36
81 106 25 162 l-35 35 36 41 c35 38 36 41 19 54 -19 13 -76 16 -105 6z m48
-31 c9 -6 6 -14 -13 -32 -21 -20 -25 -21 -31 -6 -13 35 13 57 44 38z m-7 -141
c34 -34 37 -63 9 -91 -33 -33 -84 -19 -113 30 -17 28 -17 29 20 59 21 17 41
31 46 31 5 0 22 -13 38 -29z"/>
<path d="M1407 530 c-88 -56 -140 -158 -118 -232 26 -86 127 -78 220 16 54 55
38 69 -24 21 -82 -62 -128 -58 -133 11 -5 67 46 152 101 170 20 6 49 -17 59
-48 7 -20 27 1 37 39 13 44 4 53 -55 53 -27 0 -55 -9 -87 -30z"/>
<path d="M1715 544 c-101 -52 -138 -246 -55 -289 110 -57 230 40 230 187 0 52
-3 63 -29 89 -24 23 -38 29 -73 29 -24 0 -56 -7 -73 -16z m99 -30 c20 -20 20
-76 0 -143 -25 -85 -79 -124 -118 -85 -33 33 -12 165 34 214 31 33 60 38 84
14z"/>
<path d="M3638 553 c7 -3 16 -2 19 1 4 3 -2 6 -13 5 -11 0 -14 -3 -6 -6z"/>
<path d="M4209 552 c14 -10 12 -77 -5 -132 -6 -22 -5 -23 8 -13 21 18 20 144
-2 150 -12 4 -13 3 -1 -5z"/>
<path d="M4294 518 c-25 -23 -50 -51 -56 -62 -6 -12 7 -1 28 23 21 24 52 52
68 62 17 11 25 19 18 19 -7 0 -33 -19 -58 -42z"/>
<path d="M4397 550 c6 -8 13 -26 16 -40 l4 -25 2 26 c0 15 -7 33 -16 40 -16
12 -17 12 -6 -1z"/>
<path d="M4704 544 c-19 -15 -19 -15 1 -6 11 5 27 12 35 15 13 5 13 6 -1 6 -8
1 -24 -6 -35 -15z"/>
<path d="M5959 533 l-24 -28 28 24 c25 23 32 31 24 31 -2 0 -14 -12 -28 -27z"/>
<path d="M3570 511 c-63 -66 -81 -188 -34 -238 l26 -28 -21 29 c-41 56 -21
176 41 238 21 21 35 38 31 38 -3 0 -23 -17 -43 -39z"/>
<path d="M3759 526 c42 -58 18 -190 -45 -246 -19 -16 -31 -30 -26 -30 18 0 72
68 87 109 24 69 20 134 -11 168 l-26 28 21 -29z"/>
<path d="M3917 471 c-66 -64 -80 -82 -69 -92 10 -11 24 -2 72 46 33 33 60 53
60 45 0 -8 -11 -62 -25 -119 -14 -57 -24 -106 -21 -108 2 -2 18 53 34 124 17
70 29 130 26 132 -2 3 -34 -24 -69 -59 -35 -35 -68 -60 -72 -56 -5 4 29 44 75
87 46 43 81 79 77 79 -3 0 -43 -36 -88 -79z"/>
<path d="M4050 544 c0 -5 -9 -40 -19 -77 -14 -47 -16 -67 -8 -64 7 2 12 15 13
28 0 13 6 44 13 68 7 23 10 46 7 49 -3 3 -6 1 -6 -4z"/>
<path d="M4099 508 c-41 -43 -71 -87 -50 -74 6 4 11 5 11 3 0 -5 -51 -114 -74
-159 -12 -22 -12 -26 -1 -22 7 3 16 17 20 31 13 55 71 156 107 188 21 19 34
35 30 35 -4 0 -13 -5 -20 -12 -6 -6 -15 -8 -19 -4 -4 4 6 18 22 31 17 13 27
24 22 25 -4 0 -25 -19 -48 -42z m-14 -48 c-10 -11 -20 -18 -23 -15 -3 3 3 14
13 25 10 11 20 18 23 15 3 -3 -3 -14 -13 -25z"/>
<path d="M6021 513 c-1 -25 3 -33 17 -33 11 0 13 3 6 8 -7 4 -14 18 -17 32 -4
21 -4 20 -6 -7z"/>
<path d="M3616 499 c-14 -17 -26 -36 -26 -42 0 -7 9 2 19 20 11 17 28 36 38
42 10 6 13 11 6 11 -6 0 -23 -14 -37 -31z"/>
<path d="M3705 517 c41 -31 12 -184 -42 -227 -14 -11 -21 -20 -16 -20 16 0 51
43 66 80 34 82 27 166 -13 178 -9 2 -7 -2 5 -11z"/>
<path d="M4633 495 c-82 -70 -120 -199 -70 -241 22 -19 22 -19 5 2 -42 49 -8
159 69 231 55 52 53 57 -4 8z"/>
<path d="M5229 513 c-13 -16 -12 -17 4 -4 16 13 21 21 13 21 -2 0 -10 -8 -17
-17z"/>
<path d="M6124 508 l-19 -23 23 19 c12 11 22 21 22 23 0 8 -8 2 -26 -19z"/>
<path d="M6269 513 c-13 -16 -12 -17 4 -4 9 7 17 15 17 17 0 8 -8 3 -21 -13z"/>
<path d="M4676 490 c-19 -17 -44 -50 -55 -74 -21 -42 -28 -110 -13 -119 4 -3
7 19 7 47 0 61 35 124 88 156 18 11 27 20 20 20 -7 0 -28 -14 -47 -30z"/>
<path d="M4781 478 c-15 -49 -42 -97 -85 -147 -28 -34 -29 -35 -3 -12 48 44
121 180 105 197 -3 2 -10 -15 -17 -38z"/>
<path d="M5565 458 l-60 -63 63 60 c34 33 62 61 62 62 0 8 -10 -1 -65 -59z"/>
<path d="M4166 493 c4 -16 -29 -168 -52 -239 -5 -16 -4 -16 5 -4 5 8 23 66 38
127 20 85 24 116 16 124 -9 9 -11 7 -7 -8z"/>
<path d="M4288 483 c-37 -41 -73 -102 -94 -162 -12 -34 -28 -58 -44 -67 -14
-7 -20 -13 -14 -14 22 0 51 35 69 85 23 63 76 148 106 169 13 9 19 16 13 16
-6 0 -22 -12 -36 -27z"/>
<path d="M4351 485 c0 -16 -4 -41 -6 -55 l-6 -25 11 25 c6 13 9 38 7 55 l-4
30 -2 -30z"/>
<path d="M5356 495 c4 -8 8 -15 10 -15 2 0 4 7 4 15 0 8 -4 15 -10 15 -5 0 -7
-7 -4 -15z"/>
<path d="M6396 495 c4 -8 8 -15 10 -15 2 0 4 7 4 15 0 8 -4 15 -10 15 -5 0 -7
-7 -4 -15z"/>
<path d="M5941 484 c0 -11 3 -14 6 -6 3 7 2 16 -1 19 -3 4 -6 -2 -5 -13z"/>
<path d="M4401 464 c0 -11 3 -14 6 -6 3 7 2 16 -1 19 -3 4 -6 -2 -5 -13z"/>
<path d="M5575 418 l-60 -63 56 53 c30 29 58 49 62 46 4 -4 7 0 7 9 0 10 -1
17 -3 17 -1 0 -29 -28 -62 -62z"/>
<path d="M3576 418 c-3 -13 -5 -34 -5 -48 1 -15 5 -7 10 19 9 47 6 68 -5 29z"/>
<path d="M4376 374 c-13 -52 -14 -70 -5 -78 9 -8 10 -8 5 1 -4 7 0 40 9 74 9
34 14 63 12 65 -2 3 -12 -25 -21 -62z"/>
<path d="M5781 413 c-10 -26 -10 -27 4 -9 8 11 15 23 15 28 0 15 -7 8 -19 -19z"/>
<path d="M5962 420 c0 -14 2 -19 5 -12 2 6 2 18 0 25 -3 6 -5 1 -5 -13z"/>
<path d="M5200 409 c-7 -11 -10 -23 -7 -25 2 -2 9 7 15 21 14 30 7 33 -8 4z"/>
<path d="M6240 409 c-7 -11 -10 -23 -7 -25 2 -2 9 7 15 21 14 30 7 33 -8 4z"/>
<path d="M4811 394 c0 -11 3 -14 6 -6 3 7 2 16 -1 19 -3 4 -6 -2 -5 -13z"/>
<path d="M4321 356 c-15 -62 -14 -91 6 -107 15 -13 15 -12 2 8 -11 18 -11 32
-1 79 14 69 9 83 -7 20z"/>
<path d="M5841 374 c0 -11 3 -14 6 -6 3 7 2 16 -1 19 -3 4 -6 -2 -5 -13z"/>
<path d="M5499 363 c8 -14 1 -27 -32 -63 l-42 -45 47 44 c39 36 45 47 37 63
-5 10 -12 18 -15 18 -3 0 -1 -8 5 -17z"/>
<path d="M4750 361 c0 -5 -22 -32 -49 -60 -28 -28 -41 -47 -31 -41 10 5 32 26
48 46 l30 37 -5 -40 c-4 -29 -1 -42 13 -53 16 -14 16 -13 4 7 -11 16 -11 32
-3 67 6 25 6 46 2 46 -5 0 -9 -4 -9 -9z"/>
<path d="M4802 350 c0 -14 2 -19 5 -12 2 6 2 18 0 25 -3 6 -5 1 -5 -13z"/>
<path d="M3180 344 c0 -10 -7 -32 -15 -48 -13 -24 -13 -27 -1 -17 16 14 31 69
22 78 -3 4 -6 -2 -6 -13z"/>
<path d="M4438 325 c-21 -19 -35 -35 -31 -35 4 0 22 14 40 32 18 17 36 28 40
24 5 -5 -14 -29 -42 -54 -27 -25 -41 -39 -30 -32 39 27 85 74 85 87 0 22 -23
14 -62 -22z"/>
<path d="M4900 350 c0 -5 -17 -21 -37 -35 -21 -14 -33 -25 -27 -25 5 0 25 13
44 30 52 43 60 36 15 -12 l-40 -43 42 39 c23 22 40 43 37 48 -7 11 -34 10 -34
-2z"/>
<path d="M5182 335 c0 -16 2 -22 5 -12 2 9 2 23 0 30 -3 6 -5 -1 -5 -18z"/>
<path d="M5279 343 c-13 -16 -12 -17 4 -4 9 7 17 15 17 17 0 8 -8 3 -21 -13z"/>
<path d="M5459 333 l-24 -28 28 24 c25 23 32 31 24 31 -2 0 -14 -12 -28 -27z"/>
<path d="M6222 335 c0 -16 2 -22 5 -12 2 9 2 23 0 30 -3 6 -5 -1 -5 -18z"/>
<path d="M6319 343 c-13 -16 -12 -17 4 -4 9 7 17 15 17 17 0 8 -8 3 -21 -13z"/>
<path d="M6499 333 l-24 -28 28 24 c25 23 32 31 24 31 -2 0 -14 -12 -28 -27z"/>
<path d="M6543 355 c4 -5 -12 -28 -35 -52 -23 -24 -40 -43 -37 -43 3 0 24 20
48 44 32 33 39 46 29 51 -7 5 -10 4 -5 0z"/>
<path d="M5321 334 c0 -11 3 -14 6 -6 3 7 2 16 -1 19 -3 4 -6 -2 -5 -13z"/>
<path d="M5381 334 c0 -11 3 -14 6 -6 3 7 2 16 -1 19 -3 4 -6 -2 -5 -13z"/>
<path d="M5719 323 l-24 -28 28 24 c25 23 32 31 24 31 -2 0 -14 -12 -28 -27z"/>
<path d="M6361 334 c0 -11 3 -14 6 -6 3 7 2 16 -1 19 -3 4 -6 -2 -5 -13z"/>
<path d="M6421 334 c0 -11 3 -14 6 -6 3 7 2 16 -1 19 -3 4 -6 -2 -5 -13z"/>
<path d="M3567 318 c7 -29 22 -48 37 -48 6 0 3 5 -6 11 -10 5 -18 19 -18 29 0
10 -4 21 -9 24 -5 4 -7 -4 -4 -16z"/>
<path d="M5112 310 c0 -14 2 -19 5 -12 2 6 2 18 0 25 -3 6 -5 1 -5 -13z"/>
<path d="M5919 313 c-13 -16 -12 -17 4 -4 9 7 17 15 17 17 0 8 -8 3 -21 -13z"/>
<path d="M6152 310 c0 -14 2 -19 5 -12 2 6 2 18 0 25 -3 6 -5 1 -5 -13z"/>
<path d="M3054 306 c-19 -14 -19 -15 5 -40 14 -14 29 -26 34 -26 5 0 -2 9 -17
21 -30 24 -33 34 -9 43 10 4 23 -1 35 -14 26 -28 33 -25 11 5 -21 28 -32 30
-59 11z"/>
<path d="M4790 311 c0 -6 4 -13 10 -16 6 -3 7 1 4 9 -7 18 -14 21 -14 7z"/>
<path d="M5274 288 l-29 -33 33 29 c17 17 32 31 32 33 0 8 -8 1 -36 -29z"/>
<path d="M5719 283 l-34 -38 38 34 c34 33 42 41 34 41 -2 0 -19 -17 -38 -37z"/>
<path d="M6314 288 l-29 -33 33 29 c17 17 32 31 32 33 0 8 -8 1 -36 -29z"/>
<path d="M5944 288 l-19 -23 23 19 c12 11 22 21 22 23 0 8 -8 2 -26 -19z"/>
<path d="M5120 266 c0 -2 8 -10 18 -17 15 -13 16 -12 3 4 -13 16 -21 21 -21
13z"/>
<path d="M5320 261 c0 -6 4 -13 10 -16 6 -3 7 1 4 9 -7 18 -14 21 -14 7z"/>
<path d="M6160 266 c0 -2 8 -10 18 -17 15 -13 16 -12 3 4 -13 16 -21 21 -21
13z"/>
<path d="M6360 261 c0 -6 4 -13 10 -16 6 -3 7 1 4 9 -7 18 -14 21 -14 7z"/>
</g>
</svg>
