<?xml version="1.0" standalone="no"?>
<!DOCTYPE svg PUBLIC "-//W3C//DTD SVG 20010904//EN"
 "http://www.w3.org/TR/2001/REC-SVG-20010904/DTD/svg10.dtd">
<svg version="1.0" xmlns="http://www.w3.org/2000/svg"
 width="259.000000pt" height="79.000000pt" viewBox="0 0 259.000000 79.000000"
 preserveAspectRatio="xMidYMid meet">
<metadata>
Created by potrace 1.16, written by Peter Selinger 2001-2019
</metadata>
<g transform="translate(0.000000,79.000000) scale(0.100000,-0.100000)"
fill="#000000" stroke="none">
<path d="M1457 543 c-4 -3 -7 -28 -7 -54 l0 -47 -28 10 c-43 17 -83 -7 -102
-60 -13 -37 -13 -47 0 -84 20 -56 56 -78 102 -60 23 8 34 9 39 1 4 -7 12 -8
18 -5 17 11 15 306 -2 306 -8 0 -17 -3 -20 -7z"/>
<path d="M264 517 c-2 -7 -3 -71 -2 -143 l3 -129 57 2 c78 3 112 22 133 78 31
81 5 163 -60 191 -44 18 -124 19 -131 1z m121 -33 c23 -9 45 -57 45 -98 0 -71
-35 -106 -105 -106 l-35 0 0 105 0 105 39 0 c22 0 47 -3 56 -6z"/>
<path d="M1010 453 c-76 -28 -90 -162 -20 -198 42 -22 74 -19 108 10 88 74 17
226 -88 188z m78 -51 c16 -21 15 -83 -2 -107 -15 -20 -70 -25 -87 -8 -6 6 -13
29 -16 51 -5 34 -1 44 21 67 28 28 60 27 84 -3z"/>
<path d="M1655 448 c-11 -28 -1 -201 12 -205 9 -3 13 18 15 73 3 71 5 79 31
97 26 20 28 20 45 4 12 -13 18 -40 22 -95 3 -42 10 -77 15 -77 11 0 19 136 11
171 -8 31 -59 50 -93 35 -19 -9 -29 -9 -39 0 -11 9 -15 8 -19 -3z"/>
<path d="M2294 451 c-35 -15 -54 -51 -54 -104 0 -40 5 -53 29 -78 71 -70 172
-4 158 103 -3 22 -14 49 -24 60 -22 22 -79 32 -109 19z"/>
</g>
</svg>
