<?xml version="1.0" standalone="no"?>
<!DOCTYPE svg PUBLIC "-//W3C//DTD SVG 20010904//EN"
 "http://www.w3.org/TR/2001/REC-SVG-20010904/DTD/svg10.dtd">
<svg version="1.0" xmlns="http://www.w3.org/2000/svg"
 width="229.000000pt" height="61.000000pt" viewBox="0 0 229.000000 61.000000"
 preserveAspectRatio="xMidYMid meet">
<metadata>
Created by potrace 1.16, written by Peter Selinger 2001-2019
</metadata>
<g transform="translate(0.000000,61.000000) scale(0.100000,-0.100000)"
fill="#000000" stroke="none">
<path d="M0 305 l0 -305 1145 0 1145 0 0 305 0 305 -1145 0 -1145 0 0 -305z
m456 173 c19 -19 7 -52 -15 -42 -34 15 -77 16 -89 1 -19 -23 -4 -46 49 -72 56
-29 79 -58 79 -100 -1 -55 -41 -85 -114 -85 -50 0 -90 27 -80 55 7 18 6 19 48
-1 44 -21 84 -12 92 21 8 32 1 41 -55 69 -56 29 -69 43 -77 84 -5 26 -1 36 25
63 29 28 36 31 78 26 25 -2 52 -11 59 -19z m1252 -35 c2 -15 11 -23 30 -25 39
-4 38 -42 -1 -46 l-28 -3 3 -72 c3 -69 4 -72 28 -72 18 0 25 -6 25 -20 0 -27
-59 -33 -86 -9 -16 14 -19 31 -19 96 l0 78 -42 0 c-65 0 -78 -18 -78 -112 0
-77 0 -78 -25 -78 l-26 0 3 118 3 117 65 1 c103 3 100 2 100 30 0 21 4 25 23
22 14 -2 23 -11 25 -25z m-1148 -113 c6 -91 12 -110 37 -110 38 0 53 30 53
104 0 78 9 102 34 93 13 -5 16 -25 16 -120 l0 -114 -67 -1 c-37 0 -75 4 -85 9
-23 12 -38 70 -38 150 0 70 5 81 30 77 12 -3 16 -22 20 -88z m245 80 c4 -7 12
-7 25 0 34 18 70 11 102 -20 29 -29 30 -34 26 -97 -4 -57 -8 -69 -33 -90 -22
-20 -37 -24 -72 -21 l-43 3 0 -42 c0 -39 -2 -43 -25 -43 l-25 0 0 153 c0 85 3
157 7 160 10 10 31 8 38 -3z m240 0 c4 -7 12 -7 25 0 102 55 183 -116 98 -207
-20 -21 -30 -24 -70 -20 l-48 4 0 -43 c0 -40 -2 -44 -25 -44 l-25 0 0 153 c0
85 3 157 7 160 10 10 31 8 38 -3z m371 -24 c28 -28 34 -42 34 -76 0 -53 -24
-104 -56 -119 -31 -14 -89 -14 -115 -1 -48 26 -64 121 -29 178 38 62 113 71
166 18z m545 5 c21 -21 29 -39 29 -64 0 -42 -10 -47 -91 -47 -63 0 -72 -9 -42
-42 18 -20 49 -23 88 -8 21 8 27 7 32 -7 10 -24 -24 -43 -80 -43 -40 0 -53 5
-78 29 -25 25 -29 37 -29 83 1 85 37 127 108 128 24 0 42 -8 63 -29z m199 19
c21 -13 3 -40 -26 -40 -41 0 -53 -25 -54 -112 0 -76 -1 -78 -25 -78 l-25 0 0
113 c0 63 2 116 5 118 8 8 111 8 125 -1z"/>
</g>
</svg>
