<?xml version="1.0" standalone="no"?>
<!DOCTYPE svg PUBLIC "-//W3C//DTD SVG 20010904//EN"
 "http://www.w3.org/TR/2001/REC-SVG-20010904/DTD/svg10.dtd">
<svg version="1.0" xmlns="http://www.w3.org/2000/svg"
 width="232.000000pt" height="79.000000pt" viewBox="0 0 232.000000 79.000000"
 preserveAspectRatio="xMidYMid meet">
<metadata>
Created by potrace 1.16, written by Peter Selinger 2001-2019
</metadata>
<g transform="translate(0.000000,79.000000) scale(0.100000,-0.100000)"
fill="#000000" stroke="none">
<path d="M325 535 c-44 -43 -27 -89 48 -131 54 -31 67 -54 47 -79 -15 -18 -81
-20 -98 -3 -9 9 -15 9 -24 0 -32 -32 72 -66 122 -40 14 8 31 26 38 42 21 42 1
78 -59 111 -55 29 -68 49 -52 74 11 17 43 20 81 7 16 -5 22 -3 22 8 0 41 -88
49 -125 11z"/>
<path d="M1567 534 c-4 -4 -7 -15 -7 -25 0 -21 -24 -31 -56 -23 -14 4 -31 1
-39 -6 -12 -10 -18 -10 -30 0 -22 18 -26 -2 -23 -110 2 -64 7 -95 16 -98 9 -3
12 15 12 65 0 81 15 109 62 116 52 7 58 1 58 -63 0 -95 26 -132 80 -115 25 8
27 37 3 34 -41 -4 -43 0 -43 70 0 69 0 70 28 73 36 4 36 32 0 36 -18 2 -28 10
-30 24 -3 22 -19 33 -31 22z"/>
<path d="M516 483 c-3 -3 -6 -44 -6 -89 0 -73 3 -86 22 -104 24 -22 49 -25 79
-9 15 7 24 7 35 -1 21 -18 25 3 22 111 -4 113 -21 125 -28 20 -5 -67 -8 -76
-33 -95 l-29 -21 -19 24 c-15 18 -19 39 -19 92 0 63 -8 88 -24 72z"/>
<path d="M737 483 c-4 -3 -7 -69 -7 -145 0 -131 1 -138 20 -138 17 0 20 7 20
45 0 42 2 45 19 35 31 -16 58 -12 87 13 22 19 28 34 32 80 4 52 2 58 -26 87
-33 32 -46 35 -86 20 -16 -6 -27 -6 -31 0 -7 12 -19 13 -28 3z"/>
<path d="M967 483 c-4 -3 -7 -69 -7 -145 0 -116 2 -138 15 -138 11 0 15 12 15
45 0 44 1 44 24 34 31 -14 70 -5 96 23 31 34 29 130 -5 163 -26 27 -54 31 -86
14 -14 -7 -24 -7 -33 0 -7 6 -16 8 -19 4z"/>
<path d="M1221 477 c-33 -20 -50 -55 -51 -105 0 -35 6 -49 30 -74 28 -27 36
-30 73 -25 59 8 87 43 87 107 0 36 -6 56 -22 75 -28 31 -83 41 -117 22z"/>
<path d="M1733 480 c-53 -21 -70 -138 -26 -181 37 -38 143 -33 143 7 0 11 -5
14 -16 10 -60 -23 -114 -7 -114 34 0 17 8 19 68 22 65 3 67 4 70 31 2 20 -5
35 -27 57 -30 30 -58 36 -98 20z"/>
</g>
</svg>
