<?xml version="1.0" standalone="no"?>
<!DOCTYPE svg PUBLIC "-//W3C//DTD SVG 20010904//EN"
 "http://www.w3.org/TR/2001/REC-SVG-20010904/DTD/svg10.dtd">
<svg version="1.0" xmlns="http://www.w3.org/2000/svg"
 width="358.000000pt" height="92.000000pt" viewBox="0 0 358.000000 92.000000"
 preserveAspectRatio="xMidYMid meet">
<metadata>
Created by potrace 1.16, written by Peter Selinger 2001-2019
</metadata>
<g transform="translate(0.000000,92.000000) scale(0.100000,-0.100000)"
fill="#000000" stroke="none">
<path d="M1450 585 c0 -52 -1 -55 -19 -45 -33 17 -61 11 -92 -19 -24 -24 -29
-38 -29 -76 0 -86 47 -133 107 -106 19 9 29 9 40 -1 27 -22 33 12 30 157 -2
124 -4 140 -19 143 -15 3 -18 -5 -18 -53z"/>
<path d="M257 613 c-4 -3 -7 -66 -7 -139 0 -126 1 -133 21 -139 24 -8 106 2
132 17 57 30 78 159 35 213 -12 15 -36 34 -54 41 -35 14 -116 19 -127 7z m130
-48 c47 -33 48 -141 2 -177 -12 -10 -38 -18 -60 -18 l-39 0 0 105 0 105 38 0
c21 0 47 -7 59 -15z"/>
<path d="M1615 610 c-11 -19 6 -30 45 -30 l39 0 3 -122 c3 -101 6 -123 18
-123 12 0 15 21 18 122 l3 122 37 3 c26 2 38 8 40 21 3 15 -7 17 -97 17 -56 0
-103 -4 -106 -10z"/>
<path d="M991 537 c-33 -20 -50 -55 -51 -105 0 -35 6 -49 30 -74 28 -27 36
-30 73 -25 59 8 87 43 87 107 0 36 -6 56 -22 75 -28 31 -83 41 -117 22z"/>
<path d="M1851 537 c-33 -20 -50 -55 -51 -105 0 -35 6 -49 30 -74 28 -27 36
-30 73 -25 59 8 87 43 87 107 0 36 -6 56 -22 75 -28 31 -83 41 -117 22z"/>
<path d="M2045 538 c-11 -29 -1 -201 13 -206 9 -3 12 16 12 71 0 69 2 77 26
96 20 16 31 18 45 11 15 -9 19 -25 21 -93 2 -65 6 -82 18 -82 12 0 16 17 18
78 3 70 5 79 28 94 40 26 56 1 62 -97 6 -108 26 -102 30 8 3 76 1 84 -22 107
-29 29 -52 31 -84 10 -19 -14 -24 -14 -48 1 -22 15 -31 16 -57 6 -22 -8 -34
-9 -44 -1 -9 8 -14 8 -18 -3z"/>
<path d="M2403 540 c-13 -5 -23 -16 -23 -25 0 -18 11 -19 43 -4 31 14 67 -3
67 -31 0 -15 -7 -20 -30 -20 -85 0 -125 -82 -58 -119 22 -13 33 -13 58 -4 17
6 32 7 36 2 16 -27 24 1 24 85 0 87 -2 96 -22 110 -25 18 -61 20 -95 6z"/>
<path d="M2703 540 c-13 -5 -23 -16 -23 -25 0 -18 11 -19 43 -4 31 14 67 -3
67 -31 0 -15 -7 -20 -30 -20 -85 0 -125 -82 -58 -119 22 -13 33 -13 58 -4 17
6 32 7 36 2 16 -27 24 1 24 85 0 87 -2 96 -22 110 -25 18 -61 20 -95 6z"/>
<path d="M2866 542 c-3 -5 9 -53 27 -108 26 -79 36 -99 51 -99 14 0 22 13 33
50 23 83 24 83 48 15 16 -49 26 -65 41 -65 15 0 25 20 50 100 29 92 31 127 6
111 -6 -3 -20 -39 -32 -78 -13 -42 -25 -67 -28 -58 -3 8 -15 42 -27 75 -27 81
-43 78 -68 -13 -11 -40 -22 -70 -25 -67 -3 3 -15 35 -27 72 -19 63 -36 85 -49
65z"/>
<path d="M3201 538 c-14 -7 -26 -19 -29 -27 -5 -14 -2 -14 64 5 23 6 58 -20
51 -40 -2 -6 -23 -14 -47 -18 -53 -9 -72 -27 -72 -64 0 -49 56 -78 102 -54 13
7 21 7 25 0 15 -25 25 7 25 84 0 50 -5 89 -13 99 -16 23 -76 31 -106 15z"/>
</g>
</svg>
