<?xml version="1.0" standalone="no"?>
<!DOCTYPE svg PUBLIC "-//W3C//DTD SVG 20010904//EN"
 "http://www.w3.org/TR/2001/REC-SVG-20010904/DTD/svg10.dtd">
<svg version="1.0" xmlns="http://www.w3.org/2000/svg"
 width="406.000000pt" height="96.000000pt" viewBox="0 0 406.000000 96.000000"
 preserveAspectRatio="xMidYMid meet">
<metadata>
Created by potrace 1.16, written by Peter Selinger 2001-2019
</metadata>
<g transform="translate(0.000000,96.000000) scale(0.100000,-0.100000)"
fill="#000000" stroke="none">
<path d="M0 480 l0 -480 2030 0 2030 0 0 480 0 480 -2030 0 -2030 0 0 -480z
m1778 69 l2 -165 -73 -2 c-67 -1 -77 1 -97 23 -28 30 -38 111 -20 155 16 39
62 64 107 57 l33 -6 0 48 c0 52 6 63 30 59 13 -3 15 -29 18 -169z m-1206 141
c20 -6 50 -26 67 -46 28 -31 31 -41 31 -102 0 -80 -20 -120 -73 -145 -47 -23
-152 -23 -161 -1 -10 27 -7 264 4 285 12 22 70 26 132 9z m1567 1 c28 -18 4
-41 -44 -41 l-45 0 0 -136 c0 -135 0 -135 -22 -132 -22 3 -23 7 -26 136 l-3
132 -39 0 c-41 0 -56 11 -46 35 4 12 27 15 108 15 57 0 109 -4 117 -9z m-1204
-85 c24 -17 13 -52 -13 -41 -34 15 -57 11 -60 -11 -2 -17 5 -24 29 -33 47 -16
69 -40 69 -73 0 -41 -32 -68 -81 -68 -51 0 -79 15 -79 42 0 17 4 19 23 13 75
-25 119 8 55 41 -51 25 -68 45 -68 76 0 56 76 90 125 54z m199 3 c14 -7 28
-19 31 -27 9 -23 -9 -36 -33 -23 -27 14 -65 14 -80 -1 -7 -7 -12 -33 -12 -59
0 -72 38 -99 88 -63 24 16 42 12 42 -11 0 -34 -85 -58 -135 -39 -44 17 -64
139 -31 190 28 41 82 55 130 33z m232 -23 c27 -27 34 -42 34 -74 0 -85 -38
-132 -108 -132 -54 0 -77 12 -98 52 -21 40 -14 120 12 149 45 51 112 53 160 5z
m202 7 c3 -20 -1 -23 -27 -23 -16 0 -33 -6 -38 -12 -4 -7 -10 -49 -13 -93 -5
-74 -7 -80 -27 -83 -23 -3 -23 -2 -23 111 0 62 2 116 5 119 3 3 31 4 63 4 51
-1 57 -3 60 -23z m728 -7 c27 -27 34 -42 34 -74 0 -85 -38 -132 -108 -132 -54
0 -77 12 -98 52 -21 40 -14 120 12 149 45 51 112 53 160 5z m118 25 c4 -5 19
-4 37 2 25 10 35 9 60 -6 28 -15 33 -15 52 -2 30 21 73 19 96 -4 25 -25 33
-68 29 -151 -3 -59 -5 -65 -25 -68 -22 -3 -23 -1 -23 82 0 64 -4 88 -16 100
-16 17 -26 14 -56 -12 -14 -12 -18 -31 -18 -94 0 -77 -1 -79 -22 -76 -22 3
-23 8 -26 90 -3 100 -16 121 -57 94 -23 -15 -25 -22 -25 -101 0 -84 0 -85 -25
-85 l-25 0 0 113 c0 63 3 117 7 120 9 10 31 9 37 -2z m467 -10 c22 -18 24 -26
24 -118 l0 -98 -69 -3 c-82 -3 -106 12 -106 64 0 43 29 70 81 77 48 6 51 9 43
30 -8 22 -29 28 -64 16 -36 -13 -62 -6 -54 14 14 38 107 49 145 18z m323 -2
c25 -20 26 -25 26 -118 l0 -98 -70 -1 c-58 -1 -74 2 -90 18 -45 45 -8 111 68
124 46 7 56 28 22 46 -14 8 -29 7 -55 -4 -31 -13 -37 -13 -41 -1 -19 48 89 74
140 34z m103 9 c5 -7 18 -41 28 -76 20 -69 25 -67 45 15 23 99 57 97 84 -5 11
-39 23 -69 26 -67 4 2 15 34 25 70 18 66 36 88 57 67 8 -8 2 -41 -23 -119 -32
-100 -37 -108 -62 -111 -25 -3 -28 1 -43 57 -10 34 -20 61 -24 61 -3 0 -13
-26 -21 -57 -13 -51 -18 -58 -41 -61 -26 -3 -28 1 -63 108 -19 61 -33 115 -30
121 9 13 31 11 42 -3z m437 -9 c25 -20 26 -25 26 -118 l0 -98 -70 -1 c-58 -1
-74 2 -90 18 -45 45 -8 111 68 124 46 7 56 28 22 46 -14 8 -29 7 -55 -4 -31
-13 -37 -13 -41 -1 -19 48 89 74 140 34z"/>
<path d="M490 540 l0 -110 39 0 c61 0 84 25 89 98 4 58 3 63 -26 92 -23 22
-40 30 -66 30 l-36 0 0 -110z"/>
</g>
</svg>
